# xmcd CD database file
#
# Track frame offsets:
#	150
#	10014
#	20663
#	32216
#	44617
#	56669
#	66204
#	77467
#	86700
#	97283
#	108275
#	116303
#	127888
#	139977
#	152133
#	161556
#	172087
#	185368
#	196778
#	209524
#
# Disc length: 2937 seconds
#
# Revision: 3
# Processed by: cddbd v1.5.2PL0 Copyright (c) Steve Scherf et al.
# Submitted via: Feurio! 1.68 - http://www.feurio.com
#
DISCID=140b7714
DTITLE=Various Artist - Rhythm and Blues - Original Masters - CD 3
DYEAR=2009
DGENRE=R&B
TTITLE0=Boby And Ron - You're Mine
TTITLE1=Lula Reed - Sick And Tired
TTITLE2=The Bees - Tought Enough
TTITLE3=Rufus Thomas - Easy Livin' Plan
TTITLE4=Wally Mercer - Rock Around
TTITLE5=Team Mates - Crazy Baby
TTITLE6=Buddy Rogers - Mad At You
TTITLE7=Finney Mo - Shake That Thing
TTITLE8=Pork Chops - Everything Is Cool
TTITLE9=Buster Brown - Sugar Babe
TTITLE10=Marty Lewis - Satisfied With My Lovin'
TTITLE11=Kid Thomas - Wolf Pack
TTITLE12=Big Boy Groves - I Got A New Car
TTITLE13=Lord Tennison - The Dance
TTITLE14=Howlin' Wolf - Down In The Bottom
TTITLE15=L. Sundown - Mojo Man
TTITLE16=Brown And Brooks - Sleeping In An Ocean Of Tears
TTITLE17=Prince Ch. - Come On Home
TTITLE18=Little Walter - Roller Coaster
TTITLE19=W. King - Big Leg Woman
EXTD=
EXTT0=
EXTT1=
EXTT2=
EXTT3=
EXTT4=
EXTT5=
EXTT6=
EXTT7=
EXTT8=
EXTT9=
EXTT10=
EXTT11=
EXTT12=
EXTT13=
EXTT14=
EXTT15=
EXTT16=
EXTT17=
EXTT18=
EXTT19=
PLAYORDER=
